<mxfile host="app.diagrams.net" modified="2024-05-05T06:26:47.400Z" agent="Mozilla/5.0 (Windows NT 10.0; Win64; x64) AppleWebKit/537.36 (KHTML, like Gecko) Chrome/124.0.0.0 Safari/537.36" etag="6-g0eU0qHEQl1VsO-Of_" version="24.3.1" type="google">
  <diagram id="C5RBs43oDa-KdzZeNtuy" name="Page-1">
    <mxGraphModel grid="1" page="1" gridSize="10" guides="1" tooltips="1" connect="1" arrows="1" fold="1" pageScale="1" pageWidth="827" pageHeight="1169" math="0" shadow="0">
      <root>
        <mxCell id="WIyWlLk6GJQsqaUBKTNV-0" />
        <mxCell id="WIyWlLk6GJQsqaUBKTNV-1" parent="WIyWlLk6GJQsqaUBKTNV-0" />
        <mxCell id="jgXtDF6FCATu1GwoqFkk-77" style="edgeStyle=orthogonalEdgeStyle;rounded=0;orthogonalLoop=1;jettySize=auto;html=1;entryX=0;entryY=0.5;entryDx=0;entryDy=0;" edge="1" parent="WIyWlLk6GJQsqaUBKTNV-1" source="jgXtDF6FCATu1GwoqFkk-0" target="jgXtDF6FCATu1GwoqFkk-26">
          <mxGeometry relative="1" as="geometry" />
        </mxCell>
        <mxCell id="jgXtDF6FCATu1GwoqFkk-0" value="Mensajero" style="swimlane;fontStyle=0;align=center;verticalAlign=top;childLayout=stackLayout;horizontal=1;startSize=30;horizontalStack=0;resizeParent=1;resizeLast=0;collapsible=1;marginBottom=0;rounded=0;shadow=0;strokeWidth=1;fillColor=#fff2cc;strokeColor=#d6b656;" vertex="1" parent="WIyWlLk6GJQsqaUBKTNV-1">
          <mxGeometry x="-520" y="-1952" width="160" height="64" as="geometry">
            <mxRectangle x="110" y="-20" width="160" height="26" as="alternateBounds" />
          </mxGeometry>
        </mxCell>
        <mxCell id="jgXtDF6FCATu1GwoqFkk-3" value="" style="line;html=1;strokeWidth=1;align=left;verticalAlign=middle;spacingTop=-1;spacingLeft=3;spacingRight=3;rotatable=0;labelPosition=right;points=[];portConstraint=eastwest;" vertex="1" parent="jgXtDF6FCATu1GwoqFkk-0">
          <mxGeometry y="30" width="160" height="8" as="geometry" />
        </mxCell>
        <mxCell id="jgXtDF6FCATu1GwoqFkk-4" value="+ enviar(mensaje: String)" style="text;align=left;verticalAlign=top;spacingLeft=4;spacingRight=4;overflow=hidden;rotatable=0;points=[[0,0.5],[1,0.5]];portConstraint=eastwest;rounded=0;shadow=0;html=0;" vertex="1" parent="jgXtDF6FCATu1GwoqFkk-0">
          <mxGeometry y="38" width="160" height="26" as="geometry" />
        </mxCell>
        <mxCell id="jgXtDF6FCATu1GwoqFkk-11" style="edgeStyle=orthogonalEdgeStyle;rounded=0;orthogonalLoop=1;jettySize=auto;html=1;exitX=1;exitY=0.5;exitDx=0;exitDy=0;" edge="1" parent="jgXtDF6FCATu1GwoqFkk-0">
          <mxGeometry relative="1" as="geometry">
            <mxPoint x="360" y="43" as="sourcePoint" />
            <mxPoint x="360" y="43" as="targetPoint" />
          </mxGeometry>
        </mxCell>
        <mxCell id="jgXtDF6FCATu1GwoqFkk-26" value="&lt;&lt;abstract&gt;&gt;&#xa;Conexion" style="swimlane;fontStyle=0;align=center;verticalAlign=top;childLayout=stackLayout;horizontal=1;startSize=40;horizontalStack=0;resizeParent=1;resizeLast=0;collapsible=1;marginBottom=0;rounded=0;shadow=0;strokeWidth=1;fillColor=#fff2cc;strokeColor=#d6b656;" vertex="1" parent="WIyWlLk6GJQsqaUBKTNV-1">
          <mxGeometry x="-280" y="-1960" width="160" height="80" as="geometry">
            <mxRectangle x="110" y="-20" width="160" height="26" as="alternateBounds" />
          </mxGeometry>
        </mxCell>
        <mxCell id="jgXtDF6FCATu1GwoqFkk-27" value="" style="line;html=1;strokeWidth=1;align=left;verticalAlign=middle;spacingTop=-1;spacingLeft=3;spacingRight=3;rotatable=0;labelPosition=right;points=[];portConstraint=eastwest;" vertex="1" parent="jgXtDF6FCATu1GwoqFkk-26">
          <mxGeometry y="40" width="160" height="8" as="geometry" />
        </mxCell>
        <mxCell id="jgXtDF6FCATu1GwoqFkk-28" value="+ enviar(mensaje: String)" style="text;align=left;verticalAlign=top;spacingLeft=4;spacingRight=4;overflow=hidden;rotatable=0;points=[[0,0.5],[1,0.5]];portConstraint=eastwest;rounded=0;shadow=0;html=0;" vertex="1" parent="jgXtDF6FCATu1GwoqFkk-26">
          <mxGeometry y="48" width="160" height="26" as="geometry" />
        </mxCell>
        <mxCell id="jgXtDF6FCATu1GwoqFkk-63" style="edgeStyle=orthogonalEdgeStyle;rounded=0;orthogonalLoop=1;jettySize=auto;html=1;entryX=0.5;entryY=1;entryDx=0;entryDy=0;startSize=10;endSize=10;endArrow=block;endFill=0;" edge="1" parent="WIyWlLk6GJQsqaUBKTNV-1" source="jgXtDF6FCATu1GwoqFkk-30" target="jgXtDF6FCATu1GwoqFkk-26">
          <mxGeometry relative="1" as="geometry" />
        </mxCell>
        <mxCell id="jgXtDF6FCATu1GwoqFkk-30" value="ConexionSegura" style="swimlane;fontStyle=0;align=center;verticalAlign=top;childLayout=stackLayout;horizontal=1;startSize=30;horizontalStack=0;resizeParent=1;resizeLast=0;collapsible=1;marginBottom=0;rounded=0;shadow=0;strokeWidth=1;fillColor=#fff2cc;strokeColor=#d6b656;" vertex="1" parent="WIyWlLk6GJQsqaUBKTNV-1">
          <mxGeometry x="-320" y="-1810" width="240" height="100" as="geometry">
            <mxRectangle x="110" y="-20" width="160" height="26" as="alternateBounds" />
          </mxGeometry>
        </mxCell>
        <mxCell id="jgXtDF6FCATu1GwoqFkk-31" value="" style="line;html=1;strokeWidth=1;align=left;verticalAlign=middle;spacingTop=-1;spacingLeft=3;spacingRight=3;rotatable=0;labelPosition=right;points=[];portConstraint=eastwest;" vertex="1" parent="jgXtDF6FCATu1GwoqFkk-30">
          <mxGeometry y="30" width="240" height="8" as="geometry" />
        </mxCell>
        <mxCell id="jgXtDF6FCATu1GwoqFkk-32" value="+ enviar(mensaje: String)" style="text;align=left;verticalAlign=top;spacingLeft=4;spacingRight=4;overflow=hidden;rotatable=0;points=[[0,0.5],[1,0.5]];portConstraint=eastwest;rounded=0;shadow=0;html=0;" vertex="1" parent="jgXtDF6FCATu1GwoqFkk-30">
          <mxGeometry y="38" width="240" height="26" as="geometry" />
        </mxCell>
        <mxCell id="jgXtDF6FCATu1GwoqFkk-33" style="edgeStyle=orthogonalEdgeStyle;rounded=0;orthogonalLoop=1;jettySize=auto;html=1;exitX=1;exitY=0.5;exitDx=0;exitDy=0;" edge="1" parent="jgXtDF6FCATu1GwoqFkk-30">
          <mxGeometry relative="1" as="geometry">
            <mxPoint x="360" y="43" as="sourcePoint" />
            <mxPoint x="360" y="43" as="targetPoint" />
          </mxGeometry>
        </mxCell>
        <mxCell id="jgXtDF6FCATu1GwoqFkk-75" value="+ setEncriptador(Encriptador encriptador)Â " style="text;align=left;verticalAlign=top;spacingLeft=4;spacingRight=4;overflow=hidden;rotatable=0;points=[[0,0.5],[1,0.5]];portConstraint=eastwest;rounded=0;shadow=0;html=0;" vertex="1" parent="jgXtDF6FCATu1GwoqFkk-30">
          <mxGeometry y="64" width="240" height="26" as="geometry" />
        </mxCell>
        <mxCell id="jgXtDF6FCATu1GwoqFkk-34" value="&lt;&lt;interface&gt;&gt;&#xa;Ecriptador" style="swimlane;fontStyle=0;align=center;verticalAlign=top;childLayout=stackLayout;horizontal=1;startSize=40;horizontalStack=0;resizeParent=1;resizeLast=0;collapsible=1;marginBottom=0;rounded=0;shadow=0;strokeWidth=1;fillColor=#fff2cc;strokeColor=#d6b656;" vertex="1" parent="WIyWlLk6GJQsqaUBKTNV-1">
          <mxGeometry y="-1800" width="200" height="80" as="geometry">
            <mxRectangle x="110" y="-20" width="160" height="26" as="alternateBounds" />
          </mxGeometry>
        </mxCell>
        <mxCell id="jgXtDF6FCATu1GwoqFkk-35" value="" style="line;html=1;strokeWidth=1;align=left;verticalAlign=middle;spacingTop=-1;spacingLeft=3;spacingRight=3;rotatable=0;labelPosition=right;points=[];portConstraint=eastwest;" vertex="1" parent="jgXtDF6FCATu1GwoqFkk-34">
          <mxGeometry y="40" width="200" height="2" as="geometry" />
        </mxCell>
        <mxCell id="jgXtDF6FCATu1GwoqFkk-36" value="+ encriptar( mensaje: String): String" style="text;align=left;verticalAlign=top;spacingLeft=4;spacingRight=4;overflow=hidden;rotatable=0;points=[[0,0.5],[1,0.5]];portConstraint=eastwest;rounded=0;shadow=0;html=0;" vertex="1" parent="jgXtDF6FCATu1GwoqFkk-34">
          <mxGeometry y="42" width="200" height="26" as="geometry" />
        </mxCell>
        <mxCell id="jgXtDF6FCATu1GwoqFkk-56" style="edgeStyle=orthogonalEdgeStyle;rounded=0;orthogonalLoop=1;jettySize=auto;html=1;entryX=0.5;entryY=1;entryDx=0;entryDy=0;endArrow=block;endFill=0;endSize=10;startSize=10;" edge="1" parent="WIyWlLk6GJQsqaUBKTNV-1" source="jgXtDF6FCATu1GwoqFkk-43" target="jgXtDF6FCATu1GwoqFkk-34">
          <mxGeometry relative="1" as="geometry">
            <mxPoint x="100" y="-1680" as="targetPoint" />
          </mxGeometry>
        </mxCell>
        <mxCell id="jgXtDF6FCATu1GwoqFkk-43" value="EncriptadorRC4" style="swimlane;fontStyle=0;align=center;verticalAlign=top;childLayout=stackLayout;horizontal=1;startSize=30;horizontalStack=0;resizeParent=1;resizeLast=0;collapsible=1;marginBottom=0;rounded=0;shadow=0;strokeWidth=1;fillColor=#fff2cc;strokeColor=#d6b656;" vertex="1" parent="WIyWlLk6GJQsqaUBKTNV-1">
          <mxGeometry y="-1640" width="200" height="60" as="geometry">
            <mxRectangle x="110" y="-20" width="160" height="26" as="alternateBounds" />
          </mxGeometry>
        </mxCell>
        <mxCell id="jgXtDF6FCATu1GwoqFkk-44" value="" style="line;html=1;strokeWidth=1;align=left;verticalAlign=middle;spacingTop=-1;spacingLeft=3;spacingRight=3;rotatable=0;labelPosition=right;points=[];portConstraint=eastwest;" vertex="1" parent="jgXtDF6FCATu1GwoqFkk-43">
          <mxGeometry y="30" width="200" height="2" as="geometry" />
        </mxCell>
        <mxCell id="jgXtDF6FCATu1GwoqFkk-45" style="edgeStyle=orthogonalEdgeStyle;rounded=0;orthogonalLoop=1;jettySize=auto;html=1;exitX=1;exitY=0.5;exitDx=0;exitDy=0;" edge="1" parent="jgXtDF6FCATu1GwoqFkk-43">
          <mxGeometry relative="1" as="geometry">
            <mxPoint x="360" y="43" as="sourcePoint" />
            <mxPoint x="360" y="43" as="targetPoint" />
          </mxGeometry>
        </mxCell>
        <mxCell id="jgXtDF6FCATu1GwoqFkk-46" value="+ encriptar( mensaje: String): String" style="text;align=left;verticalAlign=top;spacingLeft=4;spacingRight=4;overflow=hidden;rotatable=0;points=[[0,0.5],[1,0.5]];portConstraint=eastwest;rounded=0;shadow=0;html=0;" vertex="1" parent="jgXtDF6FCATu1GwoqFkk-43">
          <mxGeometry y="32" width="200" height="26" as="geometry" />
        </mxCell>
        <mxCell id="jgXtDF6FCATu1GwoqFkk-59" style="edgeStyle=orthogonalEdgeStyle;rounded=0;orthogonalLoop=1;jettySize=auto;html=1;endArrow=none;endFill=0;" edge="1" parent="WIyWlLk6GJQsqaUBKTNV-1" source="jgXtDF6FCATu1GwoqFkk-47">
          <mxGeometry relative="1" as="geometry">
            <mxPoint x="100" y="-1680" as="targetPoint" />
            <Array as="points">
              <mxPoint x="-140" y="-1680" />
            </Array>
          </mxGeometry>
        </mxCell>
        <mxCell id="jgXtDF6FCATu1GwoqFkk-47" value="EncriptadorBlowFish" style="swimlane;fontStyle=0;align=center;verticalAlign=top;childLayout=stackLayout;horizontal=1;startSize=30;horizontalStack=0;resizeParent=1;resizeLast=0;collapsible=1;marginBottom=0;rounded=0;shadow=0;strokeWidth=1;fillColor=#fff2cc;strokeColor=#d6b656;" vertex="1" parent="WIyWlLk6GJQsqaUBKTNV-1">
          <mxGeometry x="-240" y="-1640" width="200" height="60" as="geometry">
            <mxRectangle x="110" y="-20" width="160" height="26" as="alternateBounds" />
          </mxGeometry>
        </mxCell>
        <mxCell id="jgXtDF6FCATu1GwoqFkk-48" value="" style="line;html=1;strokeWidth=1;align=left;verticalAlign=middle;spacingTop=-1;spacingLeft=3;spacingRight=3;rotatable=0;labelPosition=right;points=[];portConstraint=eastwest;" vertex="1" parent="jgXtDF6FCATu1GwoqFkk-47">
          <mxGeometry y="30" width="200" height="2" as="geometry" />
        </mxCell>
        <mxCell id="jgXtDF6FCATu1GwoqFkk-49" style="edgeStyle=orthogonalEdgeStyle;rounded=0;orthogonalLoop=1;jettySize=auto;html=1;exitX=1;exitY=0.5;exitDx=0;exitDy=0;" edge="1" parent="jgXtDF6FCATu1GwoqFkk-47">
          <mxGeometry relative="1" as="geometry">
            <mxPoint x="360" y="43" as="sourcePoint" />
            <mxPoint x="360" y="43" as="targetPoint" />
          </mxGeometry>
        </mxCell>
        <mxCell id="jgXtDF6FCATu1GwoqFkk-50" value="+ encriptar( mensaje: String): String" style="text;align=left;verticalAlign=top;spacingLeft=4;spacingRight=4;overflow=hidden;rotatable=0;points=[[0,0.5],[1,0.5]];portConstraint=eastwest;rounded=0;shadow=0;html=0;" vertex="1" parent="jgXtDF6FCATu1GwoqFkk-47">
          <mxGeometry y="32" width="200" height="26" as="geometry" />
        </mxCell>
        <mxCell id="jgXtDF6FCATu1GwoqFkk-58" style="edgeStyle=orthogonalEdgeStyle;rounded=0;orthogonalLoop=1;jettySize=auto;html=1;endArrow=none;endFill=0;" edge="1" parent="WIyWlLk6GJQsqaUBKTNV-1" source="jgXtDF6FCATu1GwoqFkk-51">
          <mxGeometry relative="1" as="geometry">
            <mxPoint x="100" y="-1680" as="targetPoint" />
            <Array as="points">
              <mxPoint x="330" y="-1680" />
            </Array>
          </mxGeometry>
        </mxCell>
        <mxCell id="jgXtDF6FCATu1GwoqFkk-51" value="EncriptadorRSA" style="swimlane;fontStyle=0;align=center;verticalAlign=top;childLayout=stackLayout;horizontal=1;startSize=30;horizontalStack=0;resizeParent=1;resizeLast=0;collapsible=1;marginBottom=0;rounded=0;shadow=0;strokeWidth=1;fillColor=#fff2cc;strokeColor=#d6b656;" vertex="1" parent="WIyWlLk6GJQsqaUBKTNV-1">
          <mxGeometry x="240" y="-1640" width="200" height="60" as="geometry">
            <mxRectangle x="110" y="-20" width="160" height="26" as="alternateBounds" />
          </mxGeometry>
        </mxCell>
        <mxCell id="jgXtDF6FCATu1GwoqFkk-52" value="" style="line;html=1;strokeWidth=1;align=left;verticalAlign=middle;spacingTop=-1;spacingLeft=3;spacingRight=3;rotatable=0;labelPosition=right;points=[];portConstraint=eastwest;" vertex="1" parent="jgXtDF6FCATu1GwoqFkk-51">
          <mxGeometry y="30" width="200" height="2" as="geometry" />
        </mxCell>
        <mxCell id="jgXtDF6FCATu1GwoqFkk-54" value="+ encriptar( mensaje: String): String" style="text;align=left;verticalAlign=top;spacingLeft=4;spacingRight=4;overflow=hidden;rotatable=0;points=[[0,0.5],[1,0.5]];portConstraint=eastwest;rounded=0;shadow=0;html=0;" vertex="1" parent="jgXtDF6FCATu1GwoqFkk-51">
          <mxGeometry y="32" width="200" height="26" as="geometry" />
        </mxCell>
        <mxCell id="jgXtDF6FCATu1GwoqFkk-64" style="edgeStyle=orthogonalEdgeStyle;rounded=0;orthogonalLoop=1;jettySize=auto;html=1;entryX=-0.008;entryY=-0.047;entryDx=0;entryDy=0;entryPerimeter=0;" edge="1" parent="WIyWlLk6GJQsqaUBKTNV-1" source="jgXtDF6FCATu1GwoqFkk-30" target="jgXtDF6FCATu1GwoqFkk-36">
          <mxGeometry relative="1" as="geometry" />
        </mxCell>
        <mxCell id="jgXtDF6FCATu1GwoqFkk-65" value="&lt;b style=&quot;&quot;&gt;&lt;i style=&quot;&quot;&gt;&lt;font style=&quot;font-size: 11px;&quot;&gt;Concrete Strategy&lt;/font&gt;&lt;/i&gt;&lt;/b&gt;" style="text;html=1;align=center;verticalAlign=middle;whiteSpace=wrap;rounded=0;" vertex="1" parent="WIyWlLk6GJQsqaUBKTNV-1">
          <mxGeometry y="-1660" width="100" height="20" as="geometry" />
        </mxCell>
        <mxCell id="jgXtDF6FCATu1GwoqFkk-66" style="edgeStyle=orthogonalEdgeStyle;rounded=0;orthogonalLoop=1;jettySize=auto;html=1;exitX=0.75;exitY=0;exitDx=0;exitDy=0;entryX=0.686;entryY=-0.368;entryDx=0;entryDy=0;entryPerimeter=0;" edge="1" parent="WIyWlLk6GJQsqaUBKTNV-1" source="jgXtDF6FCATu1GwoqFkk-65" target="jgXtDF6FCATu1GwoqFkk-65">
          <mxGeometry relative="1" as="geometry" />
        </mxCell>
        <mxCell id="jgXtDF6FCATu1GwoqFkk-67" value="&lt;b style=&quot;&quot;&gt;&lt;i style=&quot;&quot;&gt;&lt;font style=&quot;font-size: 11px;&quot;&gt;Concrete Strategy&lt;/font&gt;&lt;/i&gt;&lt;/b&gt;" style="text;html=1;align=center;verticalAlign=middle;whiteSpace=wrap;rounded=0;" vertex="1" parent="WIyWlLk6GJQsqaUBKTNV-1">
          <mxGeometry x="-240" y="-1660" width="100" height="20" as="geometry" />
        </mxCell>
        <mxCell id="jgXtDF6FCATu1GwoqFkk-69" value="&lt;b style=&quot;&quot;&gt;&lt;i style=&quot;&quot;&gt;&lt;font style=&quot;font-size: 11px;&quot;&gt;Concrete Strategy&lt;/font&gt;&lt;/i&gt;&lt;/b&gt;" style="text;html=1;align=center;verticalAlign=middle;whiteSpace=wrap;rounded=0;" vertex="1" parent="WIyWlLk6GJQsqaUBKTNV-1">
          <mxGeometry x="230" y="-1660" width="100" height="20" as="geometry" />
        </mxCell>
        <mxCell id="jgXtDF6FCATu1GwoqFkk-71" value="&lt;font size=&quot;1&quot; style=&quot;&quot;&gt;&lt;b style=&quot;&quot;&gt;&lt;i style=&quot;font-size: 13px;&quot;&gt;Strategy&lt;/i&gt;&lt;/b&gt;&lt;/font&gt;" style="text;html=1;align=center;verticalAlign=middle;whiteSpace=wrap;rounded=0;" vertex="1" parent="WIyWlLk6GJQsqaUBKTNV-1">
          <mxGeometry y="-1820" width="60" height="20" as="geometry" />
        </mxCell>
        <mxCell id="jgXtDF6FCATu1GwoqFkk-72" value="&lt;font size=&quot;1&quot; style=&quot;&quot;&gt;&lt;b style=&quot;&quot;&gt;&lt;i style=&quot;font-size: 13px;&quot;&gt;Context&lt;/i&gt;&lt;/b&gt;&lt;/font&gt;" style="text;html=1;align=center;verticalAlign=middle;whiteSpace=wrap;rounded=0;" vertex="1" parent="WIyWlLk6GJQsqaUBKTNV-1">
          <mxGeometry x="-320" y="-1830" width="50" height="20" as="geometry" />
        </mxCell>
        <mxCell id="jgXtDF6FCATu1GwoqFkk-73" value="&lt;font size=&quot;1&quot; style=&quot;&quot;&gt;&lt;b style=&quot;&quot;&gt;&lt;i style=&quot;font-size: 13px;&quot;&gt;Client&lt;/i&gt;&lt;/b&gt;&lt;/font&gt;" style="text;html=1;align=center;verticalAlign=middle;whiteSpace=wrap;rounded=0;" vertex="1" parent="WIyWlLk6GJQsqaUBKTNV-1">
          <mxGeometry x="-520" y="-1972" width="50" height="20" as="geometry" />
        </mxCell>
        <mxCell id="jgXtDF6FCATu1GwoqFkk-80" value="&lt;span style=&quot;font-size: 10px;&quot;&gt;conexion&lt;/span&gt;" style="edgeLabel;html=1;align=center;verticalAlign=middle;resizable=0;points=[];" connectable="0" vertex="1" parent="WIyWlLk6GJQsqaUBKTNV-1">
          <mxGeometry x="-320" y="-1930" as="geometry">
            <mxPoint y="-5" as="offset" />
          </mxGeometry>
        </mxCell>
        <mxCell id="jgXtDF6FCATu1GwoqFkk-82" value="&lt;span style=&quot;font-size: 10px;&quot;&gt;1&lt;/span&gt;" style="edgeLabel;html=1;align=center;verticalAlign=middle;resizable=0;points=[];" connectable="0" vertex="1" parent="WIyWlLk6GJQsqaUBKTNV-1">
          <mxGeometry x="-295" y="-1900" as="geometry">
            <mxPoint y="-5" as="offset" />
          </mxGeometry>
        </mxCell>
        <mxCell id="jgXtDF6FCATu1GwoqFkk-83" value="&lt;span style=&quot;font-size: 10px;&quot;&gt;encriptador&lt;/span&gt;" style="edgeLabel;html=1;align=center;verticalAlign=middle;resizable=0;points=[];" connectable="0" vertex="1" parent="WIyWlLk6GJQsqaUBKTNV-1">
          <mxGeometry x="-310" y="-1920" as="geometry">
            <mxPoint x="269" y="148" as="offset" />
          </mxGeometry>
        </mxCell>
        <mxCell id="jgXtDF6FCATu1GwoqFkk-84" value="&lt;span style=&quot;font-size: 10px;&quot;&gt;1&lt;/span&gt;" style="edgeLabel;html=1;align=center;verticalAlign=middle;resizable=0;points=[];" connectable="0" vertex="1" parent="WIyWlLk6GJQsqaUBKTNV-1">
          <mxGeometry x="-285" y="-1890" as="geometry">
            <mxPoint x="266" y="139" as="offset" />
          </mxGeometry>
        </mxCell>
        <mxCell id="jgXtDF6FCATu1GwoqFkk-85" value="&lt;b style=&quot;&quot;&gt;&lt;i&gt;&lt;font style=&quot;font-size: 20px;&quot;&gt;PATRON STRATEGY&lt;/font&gt;&lt;/i&gt;&lt;/b&gt;" style="text;html=1;align=center;verticalAlign=middle;resizable=0;points=[];autosize=1;strokeColor=none;fillColor=none;" vertex="1" parent="WIyWlLk6GJQsqaUBKTNV-1">
          <mxGeometry x="-560" y="-2040" width="220" height="40" as="geometry" />
        </mxCell>
        <mxCell id="jgXtDF6FCATu1GwoqFkk-86" value="&lt;b style=&quot;&quot;&gt;&lt;i&gt;&lt;font style=&quot;font-size: 20px;&quot;&gt;ejercicio_10_Encriptador&lt;/font&gt;&lt;/i&gt;&lt;/b&gt;" style="text;html=1;align=center;verticalAlign=middle;resizable=0;points=[];autosize=1;strokeColor=none;fillColor=none;" vertex="1" parent="WIyWlLk6GJQsqaUBKTNV-1">
          <mxGeometry x="220" y="-1560" width="260" height="40" as="geometry" />
        </mxCell>
      </root>
    </mxGraphModel>
  </diagram>
</mxfile>
